<svg xmlns="http://www.w3.org/2000/svg" xmlns:xlink="http://www.w3.org/1999/xlink" width="500" zoomAndPan="magnify" viewBox="0 0 375 374.999991" height="500" preserveAspectRatio="xMidYMid meet" version="1.2"><defs><clipPath id="3b05be5183"><path d="M 118.125 118.242188 L 256.875 118.242188 L 256.875 256.992188 L 118.125 256.992188 Z M 118.125 118.242188 "/></clipPath><clipPath id="50133daa2b"><path d="M 118.125 161 L 169 161 L 169 256.992188 L 118.125 256.992188 Z M 118.125 161 "/></clipPath><clipPath id="fffe49d1be"><path d="M 201 118.242188 L 256.875 118.242188 L 256.875 210 L 201 210 Z M 201 118.242188 "/></clipPath></defs><g id="667549523e"><rect x="0" width="375" y="0" height="374.999991" style="fill:#ffffff;fill-opacity:1;stroke:none;"/><rect x="0" width="375" y="0" height="374.999991" style="fill:#000000;fill-opacity:1;stroke:none;"/><path style=" stroke:none;fill-rule:nonzero;fill:#ffffff;fill-opacity:1;" d="M 121.035156 121.191406 L 253.964844 254.109375 "/><g clip-rule="nonzero" clip-path="url(#3b05be5183)"><path style=" stroke:none;fill-rule:nonzero;fill:#ffffff;fill-opacity:1;" d="M 253.964844 256.753906 C 253.289062 256.753906 252.613281 256.496094 252.097656 255.980469 L 119.160156 123.058594 C 118.128906 122.027344 118.128906 120.351562 119.160156 119.316406 C 120.195312 118.285156 121.871094 118.285156 122.902344 119.316406 L 255.839844 252.238281 C 256.871094 253.269531 256.871094 254.945312 255.839844 255.976562 C 255.320312 256.496094 254.644531 256.753906 253.964844 256.753906 Z M 253.964844 256.753906 "/></g><g clip-rule="nonzero" clip-path="url(#50133daa2b)"><path style=" stroke:none;fill-rule:nonzero;fill:#ffffff;fill-opacity:1;" d="M 121.035156 256.753906 C 121.03125 256.753906 121.03125 256.753906 121.035156 256.753906 C 119.570312 256.753906 118.386719 255.566406 118.386719 254.105469 L 118.414062 165.277344 C 118.414062 163.75 119.328125 162.386719 120.742188 161.800781 C 122.152344 161.214844 123.761719 161.535156 124.84375 162.617188 L 167.867188 205.277344 C 168.90625 206.304688 168.914062 207.980469 167.882812 209.015625 C 166.855469 210.054688 165.179688 210.0625 164.140625 209.03125 L 123.703125 168.9375 L 123.679688 254.105469 C 123.679688 255.570312 122.492188 256.753906 121.035156 256.753906 Z M 121.109375 166.363281 C 121.109375 166.367188 121.113281 166.371094 121.117188 166.375 Z M 121.109375 166.363281 "/></g><g clip-rule="nonzero" clip-path="url(#fffe49d1be)"><path style=" stroke:none;fill-rule:nonzero;fill:#ffffff;fill-opacity:1;" d="M 253.964844 209.800781 C 252.503906 209.800781 251.320312 208.621094 251.320312 207.160156 L 251.292969 125.960938 L 205.566406 171.34375 C 204.53125 172.371094 202.855469 172.367188 201.824219 171.328125 C 200.796875 170.292969 200.800781 168.617188 201.839844 167.589844 L 250.164062 119.625 C 251.238281 118.550781 252.847656 118.234375 254.257812 118.816406 C 255.671875 119.402344 256.585938 120.765625 256.585938 122.292969 L 256.613281 207.15625 C 256.613281 208.617188 255.429688 209.800781 253.964844 209.800781 Z M 253.898438 123.371094 L 253.890625 123.382812 C 253.894531 123.378906 253.894531 123.375 253.898438 123.371094 Z M 253.898438 123.371094 "/></g></g></svg>