<svg xmlns="http://www.w3.org/2000/svg" xmlns:xlink="http://www.w3.org/1999/xlink" width="500" zoomAndPan="magnify" viewBox="0 0 375 374.999991" height="500" preserveAspectRatio="xMidYMid meet" version="1.2"><defs><clipPath id="54dd095d79"><path d="M 118.125 99.039062 L 256.875 99.039062 L 256.875 237.789062 L 118.125 237.789062 Z M 118.125 99.039062 "/></clipPath><clipPath id="a7a177441a"><path d="M 118.125 142 L 169 142 L 169 237.789062 L 118.125 237.789062 Z M 118.125 142 "/></clipPath><clipPath id="0c64e16675"><path d="M 201 99.039062 L 256.875 99.039062 L 256.875 191 L 201 191 Z M 201 99.039062 "/></clipPath></defs><g id="c9ea834ef6"><rect x="0" width="375" y="0" height="374.999991" style="fill:#ffffff;fill-opacity:1;stroke:none;"/><rect x="0" width="375" y="0" height="374.999991" style="fill:#000000;fill-opacity:1;stroke:none;"/><path style=" stroke:none;fill-rule:nonzero;fill:#ffffff;fill-opacity:1;" d="M 121.035156 101.988281 L 253.964844 234.910156 "/><g clip-rule="nonzero" clip-path="url(#54dd095d79)"><path style=" stroke:none;fill-rule:nonzero;fill:#ffffff;fill-opacity:1;" d="M 253.964844 237.554688 C 253.289062 237.554688 252.613281 237.292969 252.097656 236.777344 L 119.160156 103.859375 C 118.128906 102.828125 118.128906 101.152344 119.160156 100.117188 C 120.195312 99.085938 121.871094 99.085938 122.902344 100.117188 L 255.839844 233.035156 C 256.871094 234.070312 256.871094 235.746094 255.839844 236.777344 C 255.320312 237.292969 254.644531 237.554688 253.964844 237.554688 Z M 253.964844 237.554688 "/></g><g clip-rule="nonzero" clip-path="url(#a7a177441a)"><path style=" stroke:none;fill-rule:nonzero;fill:#ffffff;fill-opacity:1;" d="M 121.035156 237.554688 C 121.03125 237.554688 121.03125 237.554688 121.035156 237.554688 C 119.570312 237.554688 118.386719 236.367188 118.386719 234.90625 L 118.414062 146.078125 C 118.414062 144.550781 119.328125 143.1875 120.742188 142.601562 C 122.152344 142.011719 123.761719 142.335938 124.84375 143.414062 L 167.867188 186.078125 C 168.90625 187.105469 168.914062 188.78125 167.882812 189.816406 C 166.855469 190.855469 165.179688 190.863281 164.140625 189.832031 L 123.703125 149.738281 L 123.679688 234.90625 C 123.679688 236.371094 122.492188 237.554688 121.035156 237.554688 Z M 121.109375 147.164062 C 121.109375 147.167969 121.113281 147.171875 121.117188 147.171875 Z M 121.109375 147.164062 "/></g><g clip-rule="nonzero" clip-path="url(#0c64e16675)"><path style=" stroke:none;fill-rule:nonzero;fill:#ffffff;fill-opacity:1;" d="M 253.964844 190.601562 C 252.503906 190.601562 251.320312 189.417969 251.320312 187.957031 L 251.292969 106.757812 L 205.566406 152.140625 C 204.53125 153.171875 202.855469 153.164062 201.824219 152.128906 C 200.796875 151.09375 200.800781 149.417969 201.839844 148.390625 L 250.164062 100.425781 C 251.238281 99.351562 252.847656 99.03125 254.257812 99.617188 C 255.671875 100.199219 256.585938 101.566406 256.585938 103.09375 L 256.613281 187.957031 C 256.613281 189.417969 255.429688 190.601562 253.964844 190.601562 Z M 253.898438 104.171875 L 253.890625 104.179688 C 253.894531 104.179688 253.894531 104.175781 253.898438 104.171875 Z M 253.898438 104.171875 "/></g><g style="fill:#fffbfa;fill-opacity:1;"><g transform="translate(126.998405, 261.54845)"><path style="stroke:none" d="M 3.109375 0 L 1.328125 0 C 1.140625 0 1.046875 -0.09375 1.046875 -0.28125 L 1.046875 -10.265625 C 1.046875 -10.441406 1.082031 -10.570312 1.15625 -10.65625 C 1.226562 -10.738281 1.316406 -10.769531 1.421875 -10.75 C 1.523438 -10.726562 1.628906 -10.644531 1.734375 -10.5 L 6.234375 -4.703125 L 10.765625 -10.5 C 10.867188 -10.632812 10.972656 -10.710938 11.078125 -10.734375 C 11.179688 -10.765625 11.265625 -10.738281 11.328125 -10.65625 C 11.398438 -10.570312 11.4375 -10.441406 11.4375 -10.265625 L 11.4375 -0.28125 C 11.4375 -0.09375 11.34375 0 11.15625 0 L 9.390625 0 C 9.203125 0 9.109375 -0.09375 9.109375 -0.28125 L 9.109375 -5.03125 L 6.4375 -1.734375 C 6.300781 -1.566406 6.171875 -1.566406 6.046875 -1.734375 L 3.390625 -5.015625 L 3.390625 -0.28125 C 3.390625 -0.09375 3.296875 0 3.109375 0 Z M 3.109375 0 "/></g></g><g style="fill:#fffbfa;fill-opacity:1;"><g transform="translate(150.687777, 261.54845)"><path style="stroke:none" d="M 5.59375 -10.5 L 10.28125 -0.328125 C 10.320312 -0.234375 10.320312 -0.15625 10.28125 -0.09375 C 10.238281 -0.03125 10.164062 0 10.0625 0 L 8.046875 0 C 7.890625 0 7.78125 -0.0703125 7.71875 -0.21875 L 7.265625 -1.375 L 3.234375 -1.375 L 2.765625 -0.21875 C 2.710938 -0.0703125 2.601562 0 2.4375 0 L 0.421875 0 C 0.328125 0 0.257812 -0.03125 0.21875 -0.09375 C 0.175781 -0.15625 0.175781 -0.234375 0.21875 -0.328125 L 4.90625 -10.5 C 4.988281 -10.695312 5.097656 -10.796875 5.234375 -10.796875 C 5.378906 -10.796875 5.5 -10.695312 5.59375 -10.5 Z M 5.25 -6.453125 L 3.953125 -3.21875 L 6.53125 -3.21875 Z M 5.25 -6.453125 "/></g></g><g style="fill:#fffbfa;fill-opacity:1;"><g transform="translate(172.382169, 261.54845)"><path style="stroke:none" d="M 4.203125 0.265625 C 3.691406 0.265625 3.160156 0.21875 2.609375 0.125 C 2.066406 0.0390625 1.472656 -0.109375 0.828125 -0.328125 C 0.648438 -0.398438 0.59375 -0.519531 0.65625 -0.6875 L 1.171875 -2.1875 C 1.234375 -2.363281 1.351562 -2.421875 1.53125 -2.359375 C 2.007812 -2.171875 2.476562 -2.023438 2.9375 -1.921875 C 3.394531 -1.828125 3.8125 -1.78125 4.1875 -1.78125 C 4.613281 -1.78125 4.957031 -1.851562 5.21875 -2 C 5.488281 -2.15625 5.625 -2.394531 5.625 -2.71875 C 5.625 -2.914062 5.550781 -3.09375 5.40625 -3.25 C 5.269531 -3.414062 5.078125 -3.570312 4.828125 -3.71875 C 4.585938 -3.863281 4.316406 -4.007812 4.015625 -4.15625 C 3.710938 -4.300781 3.40625 -4.453125 3.09375 -4.609375 C 2.78125 -4.773438 2.484375 -4.953125 2.203125 -5.140625 C 1.921875 -5.335938 1.664062 -5.554688 1.4375 -5.796875 C 1.21875 -6.046875 1.046875 -6.328125 0.921875 -6.640625 C 0.796875 -6.960938 0.734375 -7.332031 0.734375 -7.75 C 0.734375 -8.289062 0.832031 -8.75 1.03125 -9.125 C 1.226562 -9.507812 1.5 -9.820312 1.84375 -10.0625 C 2.1875 -10.3125 2.578125 -10.488281 3.015625 -10.59375 C 3.453125 -10.707031 3.898438 -10.765625 4.359375 -10.765625 C 4.628906 -10.765625 4.925781 -10.742188 5.25 -10.703125 C 5.570312 -10.660156 5.898438 -10.597656 6.234375 -10.515625 C 6.566406 -10.441406 6.890625 -10.351562 7.203125 -10.25 C 7.378906 -10.1875 7.4375 -10.066406 7.375 -9.890625 L 6.9375 -8.46875 C 6.875 -8.289062 6.753906 -8.234375 6.578125 -8.296875 C 6.222656 -8.429688 5.859375 -8.535156 5.484375 -8.609375 C 5.109375 -8.691406 4.757812 -8.734375 4.4375 -8.734375 C 4.195312 -8.734375 3.976562 -8.707031 3.78125 -8.65625 C 3.59375 -8.601562 3.441406 -8.515625 3.328125 -8.390625 C 3.210938 -8.273438 3.15625 -8.117188 3.15625 -7.921875 C 3.15625 -7.722656 3.210938 -7.546875 3.328125 -7.390625 C 3.441406 -7.242188 3.597656 -7.101562 3.796875 -6.96875 C 4.003906 -6.84375 4.242188 -6.71875 4.515625 -6.59375 C 4.785156 -6.46875 5.070312 -6.332031 5.375 -6.1875 C 5.695312 -6.03125 6.015625 -5.851562 6.328125 -5.65625 C 6.640625 -5.457031 6.925781 -5.226562 7.1875 -4.96875 C 7.457031 -4.71875 7.671875 -4.414062 7.828125 -4.0625 C 7.984375 -3.707031 8.0625 -3.296875 8.0625 -2.828125 C 8.0625 -2.367188 7.988281 -1.96875 7.84375 -1.625 C 7.695312 -1.28125 7.5 -0.988281 7.25 -0.75 C 7 -0.507812 6.707031 -0.3125 6.375 -0.15625 C 6.050781 -0.0078125 5.703125 0.09375 5.328125 0.15625 C 4.953125 0.226562 4.578125 0.265625 4.203125 0.265625 Z M 4.203125 0.265625 "/></g></g><g style="fill:#fffbfa;fill-opacity:1;"><g transform="translate(192.204559, 261.54845)"><path style="stroke:none" d="M 3.15625 0 L 1.3125 0 C 1.132812 0 1.046875 -0.09375 1.046875 -0.28125 L 1.046875 -10.21875 C 1.046875 -10.40625 1.132812 -10.5 1.3125 -10.5 L 3.15625 -10.5 C 3.34375 -10.5 3.4375 -10.40625 3.4375 -10.21875 L 3.4375 -6.265625 L 7.09375 -10.34375 C 7.175781 -10.445312 7.289062 -10.5 7.4375 -10.5 L 9.796875 -10.5 C 9.910156 -10.5 9.984375 -10.460938 10.015625 -10.390625 C 10.046875 -10.316406 10.019531 -10.238281 9.9375 -10.15625 L 5.890625 -5.5625 L 9.953125 -0.34375 C 10.035156 -0.25 10.054688 -0.164062 10.015625 -0.09375 C 9.984375 -0.03125 9.910156 0 9.796875 0 L 7.234375 0 C 7.097656 0 6.988281 -0.0546875 6.90625 -0.171875 L 3.4375 -4.65625 L 3.4375 -0.28125 C 3.4375 -0.09375 3.34375 0 3.15625 0 Z M 3.15625 0 "/></g></g><g style="fill:#fffbfa;fill-opacity:1;"><g transform="translate(213.76914, 261.54845)"><path style="stroke:none" d="M 6.171875 0 L 4.328125 0 C 4.140625 0 4.046875 -0.09375 4.046875 -0.28125 L 4.046875 -4.28125 L 0.203125 -10.171875 C 0.140625 -10.253906 0.125 -10.328125 0.15625 -10.390625 C 0.195312 -10.460938 0.269531 -10.5 0.375 -10.5 L 2.609375 -10.5 C 2.753906 -10.5 2.867188 -10.4375 2.953125 -10.3125 L 5.25 -6.46875 L 7.59375 -10.3125 C 7.675781 -10.4375 7.789062 -10.5 7.9375 -10.5 L 10.171875 -10.5 C 10.285156 -10.5 10.359375 -10.460938 10.390625 -10.390625 C 10.429688 -10.328125 10.414062 -10.253906 10.34375 -10.171875 L 6.453125 -4.28125 L 6.453125 -0.28125 C 6.453125 -0.09375 6.359375 0 6.171875 0 Z M 6.171875 0 "/></g></g><g style="fill:#fffbfa;fill-opacity:1;"><g transform="translate(235.504525, 261.54845)"><path style="stroke:none" d="M 3.109375 0 L 1.328125 0 C 1.140625 0 1.046875 -0.09375 1.046875 -0.28125 L 1.046875 -10.265625 C 1.046875 -10.441406 1.082031 -10.570312 1.15625 -10.65625 C 1.226562 -10.738281 1.316406 -10.769531 1.421875 -10.75 C 1.523438 -10.726562 1.628906 -10.644531 1.734375 -10.5 L 6.234375 -4.703125 L 10.765625 -10.5 C 10.867188 -10.632812 10.972656 -10.710938 11.078125 -10.734375 C 11.179688 -10.765625 11.265625 -10.738281 11.328125 -10.65625 C 11.398438 -10.570312 11.4375 -10.441406 11.4375 -10.265625 L 11.4375 -0.28125 C 11.4375 -0.09375 11.34375 0 11.15625 0 L 9.390625 0 C 9.203125 0 9.109375 -0.09375 9.109375 -0.28125 L 9.109375 -5.03125 L 6.4375 -1.734375 C 6.300781 -1.566406 6.171875 -1.566406 6.046875 -1.734375 L 3.390625 -5.015625 L 3.390625 -0.28125 C 3.390625 -0.09375 3.296875 0 3.109375 0 Z M 3.109375 0 "/></g></g></g></svg>